PathFileType	4	(X/Y/Z)	./resultDataOpenSim/trcMotMarkerGrf/sub09/qtm-12-04.trc
DataRate	CameraRate	NumFrames	NumMarkers	Units	OrigDataRate	OrigDataStartFrame	OrigNumFrames
250.000000	250.000000	15	24	m	250.000000	421	481
Frame#	Time	L.Toe.Tip			R.Toe.Tip			L.Ankle.Lat			R.Ankle.Lat			L.Ankle.Med			R.Ankle.Med			L.Heel			R.Heel			L.Knee.Lat			R.Knee.Lat			L.Knee.Med			R.Knee.Med			L.Thigh.Upper			R.Thigh.Upper			L.ASIS			R.ASIS			V.Sacral			L.Acromium			R.Acromium			C7			L.Elbow			R.Elbow			L.Wrist.Lat			R.Wrist.Lat
		X1	Y1	Z1	X2	Y2	Z2	X3	Y3	Z3	X4	Y4	Z4	X5	Y5	Z5	X6	Y6	Z6	X7	Y7	Z7	X8	Y8	Z8	X9	Y9	Z9	X10	Y10	Z10	X11	Y11	Z11	X12	Y12	Z12	X13	Y13	Z13	X14	Y14	Z14	X15	Y15	Z15	X16	Y16	Z16	X17	Y17	Z17	X18	Y18	Z18	X19	Y19	Z19	X20	Y20	Z20	X21	Y21	Z21	X22	Y22	Z22	X23	Y23	Z23	X24	Y24	Z24

421	1.68	1.8497681	0.11702664	-0.077076308	1.1128486	0.040875488	0.025994862	1.7007253	0.083413483	-0.10748153	0.98088662	0.098825976	0.06544	1.7191658	0.11262231	-0.01458907	1.0071213	0.13565076	-0.022352799	1.6549913	0.02111797	-0.055064013	0.90999026	0.10565823	0.013763036	1.5608997	0.47866486	-0.14758876	1.2431265	0.48284371	0.13440081	1.5617245	0.47277239	-0.020781548	1.2320628	0.47525931	0.0083729479	1.3790827	0.85181526	-0.18883511	1.3197265	0.87927804	0.17881428	1.4446952	0.94534369	-0.12467874	1.4316792	0.95718563	0.11715232	1.2673217	0.99932427	-0.024650647	1.384801	1.4028824	-0.18814032	1.3854921	1.4185996	0.14469233	1.316265	1.4559479	-0.019018907	1.2127895	1.0804129	-0.24258958	1.2720604	1.0698842	0.24058039	1.3085857	0.83555765	-0.27933859	1.4619994	0.86777273	0.23696794
422	1.684	1.8532016	0.11135052	-0.076375637	1.113092	0.041030268	0.026027993	1.7034149	0.080825518	-0.10679751	0.98205631	0.10061035	0.066027435	1.722055	0.10985933	-0.013835811	1.0090321	0.13724318	-0.02175365	1.6561446	0.020108623	-0.054753835	0.91151098	0.10858984	0.014184987	1.5683458	0.47766246	-0.14769662	1.2489493	0.48162529	0.13485649	1.5696845	0.47244731	-0.020942504	1.2382536	0.47374074	0.0088782792	1.3856368	0.85108153	-0.18956719	1.3255273	0.87819486	0.17810223	1.4516141	0.94440939	-0.12505254	1.4379969	0.95596925	0.11683989	1.2739875	0.99809416	-0.025453487	1.3908203	1.4018037	-0.18868539	1.390589	1.4174609	0.14415173	1.3215933	1.4546698	-0.01980064	1.2194018	1.0791515	-0.24333997	1.2769148	1.068774	0.23943813	1.3153919	0.83431837	-0.27993082	1.4666329	0.86634275	0.23711352
423	1.688	1.8569438	0.10478344	-0.075642169	1.1133759	0.041221615	0.026093676	1.7061817	0.078596828	-0.10601041	0.98364918	0.10258466	0.066687677	1.7251173	0.10745788	-0.012991716	1.0110948	0.13890497	-0.02111859	1.6571239	0.019836388	-0.05426898	0.91316946	0.11166785	0.014582949	1.5755175	0.47660889	-0.14791202	1.2549322	0.48035639	0.13538626	1.5775372	0.47204695	-0.021221248	1.244178	0.47225697	0.009168892	1.3919766	0.85037782	-0.19023685	1.3314212	0.87707599	0.17737001	1.458479	0.94353283	-0.12541191	1.4443609	0.95474843	0.11649921	1.2806312	0.99691002	-0.026268312	1.39686	1.4007441	-0.18924471	1.395698	1.4163315	0.14359193	1.3268331	1.4534201	-0.020654887	1.2260583	1.0778981	-0.24410252	1.2820028	1.0676927	0.23839434	1.3222858	0.83310078	-0.28053693	1.4712263	0.86491544	0.2372636
424	1.692	1.8611667	0.097516125	-0.074930988	1.1137175	0.041460785	0.026185302	1.709149	0.076947792	-0.10522132	0.9860686	0.10480813	0.06753561	1.7286781	0.10556282	-0.012185545	1.0133222	0.1406272	-0.020437864	1.6581669	0.020491228	-0.053570265	0.91497733	0.11489142	0.014975074	1.5824584	0.4755992	-0.1482634	1.2610547	0.47904526	0.13596969	1.5852504	0.47155238	-0.021590321	1.2503529	0.47081632	0.0095708341	1.398273	0.8496795	-0.19089954	1.3374343	0.8759143	0.17661935	1.4652493	0.94273475	-0.12573085	1.4507724	0.95352621	0.11614263	1.2872214	0.99581449	-0.02707038	1.402924	1.3997059	-0.18982356	1.4008335	1.4152185	0.14302813	1.3321158	1.4522395	-0.021516258	1.2327582	1.0766518	-0.24488156	1.2872929	1.0666525	0.23744296	1.3292562	0.83189778	-0.28114935	1.4757827	0.86349042	0.23741828
425	1.696	1.8657871	0.090118539	-0.074246547	1.1141219	0.041736583	0.02628883	1.7123483	0.075912743	-0.10460613	0.98930704	0.10723713	0.06862814	1.7327722	0.10407884	-0.011569756	1.015722	0.14239833	-0.019696397	1.6594332	0.021957356	-0.052870768	0.91695404	0.11826593	0.015395774	1.5892329	0.47475602	-0.14871896	1.2672776	0.47768193	0.13656967	1.5928064	0.47099908	-0.02199416	1.2572023	0.46938712	0.010330028	1.4047252	0.84896665	-0.19161237	1.3435799	0.87470037	0.17585509	1.4719098	0.9420358	-0.12601475	1.4572329	0.95230942	0.11578023	1.2937638	0.99484144	-0.027802928	1.4090141	1.3986954	-0.190427	1.4060217	1.4141336	0.14246814	1.3375584	1.451169	-0.022318038	1.2395063	1.0754083	-0.24567474	1.2926532	1.0656354	0.23652392	1.336283	0.8306993	-0.28175417	1.480305	0.86206951	0.2375748
426	1.7	1.8704689	0.083209823	-0.073553003	1.1145689	0.042001494	0.026451211	1.7157293	0.075302513	-0.10429762	0.99240869	0.10968788	0.069765335	1.7370771	0.10279433	-0.011227067	1.0182834	0.14422	-0.018875433	1.6609469	0.023812415	-0.05248921	0.91912122	0.12180291	0.015888117	1.5959343	0.47422184	-0.14922612	1.2735621	0.47626604	0.13714978	1.6002049	0.47052894	-0.022388321	1.2645865	0.46787797	0.011320515	1.4114103	0.84825028	-0.19239107	1.3498285	0.87342467	0.17508642	1.4784646	0.94143941	-0.12630136	1.4637224	0.9511068	0.11541154	1.3002673	0.99400009	-0.028443305	1.4151258	1.3977218	-0.19105393	1.4112669	1.4130879	0.14191633	1.343109	1.4502494	-0.023093557	1.2463011	1.0741627	-0.24647467	1.2978772	1.0646033	0.23557131	1.3433564	0.82950394	-0.28234433	1.4847925	0.86065146	0.23773068
427	1.704	1.8747698	0.077105193	-0.072852177	1.1150226	0.042200637	0.026750601	1.7191877	0.07484625	-0.1043119	0.99417106	0.11197762	0.070629735	1.7411357	0.10157699	-0.011143819	1.0209807	0.14611481	-0.017961473	1.6626087	0.02558666	-0.052577278	0.92149626	0.12551221	0.016488528	1.6027182	0.4741326	-0.14976368	1.2799108	0.47484029	0.13769856	1.6074801	0.47038104	-0.022767285	1.2720305	0.4661884	0.01221916	1.4182663	0.84758256	-0.19321659	1.3561371	0.87208269	0.17432517	1.4849271	0.94093821	-0.12663141	1.4701974	0.9499287	0.11502325	1.3067018	0.99327543	-0.029035264	1.4212537	1.3967938	-0.19169698	1.4165462	1.412092	0.14137813	1.3486729	1.4494928	-0.023921144	1.2531405	1.0729146	-0.24727111	1.3027968	1.0635431	0.23454138	1.3504813	0.8283192	-0.28292208	1.489242	0.85923223	0.23788558
428	1.708	1.8783727	0.07170972	-0.072180329	1.1154801	0.042334706	0.027198128	1.7225794	0.074374234	-0.10456801	0.99470473	0.11417335	0.071194835	1.7446725	0.10042793	-0.011257213	1.023816	0.14809818	-0.01695417	1.6642618	0.027017615	-0.0529891	0.92409717	0.129396	0.017202203	1.6097897	0.47457353	-0.15034021	1.2864217	0.47347312	0.13823634	1.6147074	0.47078938	-0.023165494	1.2793497	0.46431593	0.012923161	1.4251895	0.84704223	-0.19405826	1.3625011	0.87068026	0.17358373	1.4913108	0.94053767	-0.12701951	1.4766176	0.94879236	0.11459595	1.313013	0.9926366	-0.029624773	1.4273983	1.3959204	-0.19234981	1.4218459	1.4111578	0.14085829	1.3542799	1.4488676	-0.024804936	1.2600399	1.0716721	-0.24806245	1.3075405	1.0624898	0.23343209	1.3576645	0.82715716	-0.28349143	1.4936568	0.85781616	0.23803771
429	1.712	1.8812115	0.066725951	-0.071520337	1.1159842	0.042457117	0.027733273	1.7257437	0.073869573	-0.10495997	0.99536946	0.11656745	0.071729709	1.7476926	0.099393249	-0.011510016	1.0268439	0.15015741	-0.015864688	1.6657627	0.028112213	-0.053445131	0.92695416	0.13345331	0.017991137	1.6173334	0.47554946	-0.15094435	1.293264	0.47220381	0.13880301	1.6219754	0.47184289	-0.023639748	1.286749	0.46235906	0.013591272	1.4321006	0.84670825	-0.19488563	1.3689231	0.86923544	0.17286986	1.4976289	0.94026092	-0.12745338	1.4829629	0.94772152	0.11411714	1.3191799	0.99205441	-0.030189373	1.4335607	1.3951142	-0.19300966	1.427175	1.4102968	0.14035782	1.3599769	1.4483316	-0.025691055	1.2670236	1.0704545	-0.24886025	1.3124266	1.0614986	0.2322791	1.3649062	0.82603279	-0.28405263	1.4980409	0.85642033	0.23818269
430	1.716	1.8834218	0.061919429	-0.070789294	1.1165819	0.042606471	0.028285605	1.7285562	0.073385842	-0.10541146	0.99712092	0.11936638	0.072416824	1.7503229	0.098474585	-0.011855848	1.0301253	0.15228074	-0.014710958	1.6670422	0.029037603	-0.05380768	0.93010746	0.13768651	0.018798055	1.6254057	0.47697187	-0.15151794	1.3005771	0.47102193	0.13946195	1.6293488	0.4734414	-0.024235745	1.2944563	0.46042261	0.014379223	1.4389562	0.84663429	-0.19567659	1.3753985	0.86777322	0.17218735	1.5039024	0.94012903	-0.1279091	1.4892327	0.9467354	0.11358832	1.3252332	0.99151506	-0.030670293	1.4397377	1.3943915	-0.19366791	1.4325376	1.4095246	0.13987095	1.3657254	1.4478549	-0.026546908	1.274097	1.0692885	-0.24967939	1.3175159	1.0605903	0.23111459	1.3722025	0.82495996	-0.28460195	1.5023868	0.85506406	0.23831728
431	1.72	1.8852222	0.057208975	-0.069924298	1.1172923	0.042783646	0.028753318	1.7309999	0.072951473	-0.10587114	0.99982767	0.12251717	0.073237469	1.7526551	0.097632672	-0.012224488	1.0336977	0.15447477	-0.013505002	1.6681301	0.029954915	-0.054194593	0.93359088	0.14209707	0.019584287	1.6338614	0.4786531	-0.15197925	1.3084487	0.46990528	0.14032029	1.6368464	0.47536758	-0.024951134	1.3025457	0.45855642	0.015332001	1.4457383	0.8468345	-0.19642463	1.3819728	0.86631977	0.17154512	1.5101543	0.94015307	-0.12837142	1.4954373	0.94584034	0.11301589	1.3312226	0.9910054	-0.031044195	1.4459243	1.3937639	-0.19430617	1.4379219	1.4088619	0.13938324	1.3714739	1.4474165	-0.027375631	1.2812441	1.0682004	-0.25052333	1.3225906	1.0597454	0.22994478	1.3795495	0.82395015	-0.28513484	1.5066762	0.85376041	0.23843956
432	1.724	1.886827	0.052717944	-0.06893396	1.1181091	0.042975398	0.028998431	1.7331923	0.072543327	-0.10627743	1.0029827	0.12583337	0.07414749	1.7547023	0.096840008	-0.012493562	1.0375989	0.15674012	-0.012234565	1.6691211	0.030925093	-0.054865256	0.93742017	0.14667873	0.020349243	1.6424264	0.48034294	-0.15227101	1.3169114	0.46889464	0.14150412	1.644432	0.4773851	-0.025729817	1.3109817	0.45674794	0.016449913	1.452443	0.84728949	-0.19714213	1.3886854	0.86490407	0.17094532	1.5163838	0.94034782	-0.12885204	1.5015886	0.94503188	0.11239954	1.337193	0.99049518	-0.031319588	1.4521155	1.3932333	-0.19490544	1.4433176	1.4083215	0.13887727	1.377207	1.4470026	-0.028183694	1.2884461	1.06721	-0.25137729	1.3275947	1.0589628	0.22877621	1.3869414	0.82301513	-0.28564796	1.5108916	0.85251871	0.23854663
433	1.728	1.888407	0.048801057	-0.067876627	1.1190009	0.043157179	0.028972909	1.7353135	0.072122285	-0.10654814	1.006347	0.12920192	0.075155472	1.7564037	0.096088849	-0.012509325	1.0418601	0.15906415	-0.010870241	1.6701045	0.03191008	-0.055950231	0.94158691	0.15142277	0.021127464	1.6508736	0.48181599	-0.15240078	1.3257856	0.4681029	0.14304042	1.6520328	0.4793066	-0.026492152	1.3196923	0.45493904	0.017760609	1.4590778	0.84796643	-0.19785676	1.3954605	0.86355317	0.17035956	1.5225743	0.94073177	-0.12937742	1.5077005	0.94430189	0.11173471	1.3431754	0.98994993	-0.031509705	1.4583027	1.3927933	-0.19545407	1.4487241	1.4078959	0.13834395	1.3829139	1.446596	-0.028961886	1.295687	1.0663281	-0.25221504	1.3327684	1.0582947	0.22763673	1.3943712	0.82216429	-0.28613871	1.5150254	0.85134647	0.2386358
434	1.732	1.8900239	0.045830678	-0.066850731	1.1199001	0.043296274	0.028787147	1.7374619	0.071683725	-0.10659381	1.0099354	0.1326342	0.076278541	1.7577233	0.095374513	-0.012171632	1.0464655	0.16144386	-0.0093917168	1.6711007	0.03279834	-0.057219972	0.94605844	0.15633335	0.021969514	1.6591154	0.4829493	-0.15243145	1.3346878	0.46755081	0.14476494	1.659577	0.48101745	-0.027165927	1.3286215	0.45305538	0.019330165	1.4656558	0.84882926	-0.19859968	1.402174	0.86227387	0.16974288	1.528729	0.94130197	-0.12995762	1.513792	0.94364207	0.1110217	1.3491642	0.98935662	-0.031651979	1.4644756	1.392432	-0.19595072	1.4541462	1.4075579	0.13778737	1.3885698	1.4461632	-0.029697761	1.3029541	1.065556	-0.25301361	1.3383014	1.0578052	0.22654719	1.4018408	0.82140062	-0.28660649	1.5190895	0.85024793	0.23870531
435	1.736	1.8915624	0.043890069	-0.065954261	1.1207393	0.043401883	0.028595249	1.7395413	0.071290988	-0.10633801	1.0137747	0.13617268	0.077516376	1.7587435	0.094707655	-0.011517059	1.0513483	0.16390504	-0.0078003583	1.6720489	0.033454761	-0.058203576	0.95080014	0.16143591	0.022921139	1.6671469	0.48374112	-0.1524335	1.3433693	0.46705216	0.14643653	1.6670098	0.4824618	-0.02770524	1.3377434	0.45104696	0.0211888	1.4721827	0.84982856	-0.19939159	1.4088002	0.86105047	0.16907313	1.5348664	0.94202293	-0.13058458	1.5198769	0.9430407	0.11026786	1.3551185	0.9887335	-0.031809702	1.4706279	1.3921365	-0.19640312	1.4595872	1.407279	0.13721865	1.3941554	1.4456833	-0.03039131	1.310246	1.0648852	-0.25376918	1.3440638	1.0575208	0.22548788	1.4093717	0.82072468	-0.28705968	1.5231114	0.84922605	0.23875168
